<svg id="Layer_1" data-name="Layer 1" xmlns="http://www.w3.org/2000/svg" viewBox="0 0 905.95 118.49"><defs><style>.cls-1{fill:#010a0a;}</style></defs><path class="cls-1" d="M13.18,17.39H52.05c9.57,0,17.11,2.63,21.89,7.41A19.19,19.19,0,0,1,79.68,39v.24c0,9.45-5,14.71-11,18.06C78.37,61,84.35,66.66,84.35,77.9v.24c0,15.31-12.44,23-31.34,23H13.18ZM48.11,51.23c8.13,0,13.27-2.63,13.27-8.85v-.24c0-5.5-4.3-8.61-12.08-8.61H31.12v17.7ZM53,85c8.13,0,13-2.87,13-9.09v-.24c0-5.62-4.19-9.09-13.64-9.09H31.12V85Z"/><path class="cls-1" d="M97,17.39h38.27c10.64,0,18.89,3,24.4,8.49,4.66,4.66,7.17,11.24,7.17,19.13v.24c0,13.52-7.29,22-17.94,26l20.45,29.9H147.85L129.91,74.32H115.43v26.79H97Zm37.07,40.66c9,0,14.11-4.78,14.11-11.84V46c0-7.89-5.5-12-14.47-12h-18.3v24Z"/><path class="cls-1" d="M183.48,17.39h63.15V33.77H201.78v17h39.47V67.14H201.78V84.72h45.45v16.39H183.48Z"/><path class="cls-1" d="M257.15,17.39h19.73l17.34,56.69L313,17.15h15.79l18.77,56.93L364.9,17.39h19.26L355.58,101.7h-16l-18.9-54.77L301.76,101.7h-16Z"/><path class="cls-1" d="M453.16,34.37H427.68v-17h69.37v17H471.57v66.74H453.16Z"/><path class="cls-1" d="M511.15,17.39H574.3V33.77H529.45v17h39.47V67.14H529.45V84.72H574.9v16.39H511.15Z"/><path class="cls-1" d="M620,16.79h17l35.88,84.32H653.59l-7.65-18.78h-35.4l-7.66,18.78H584.11Zm19.38,49.27L628.24,38.92,617.11,66.06Z"/><path class="cls-1" d="M717.93,59.49v-.24c0-23.8,17.93-43.3,43.65-43.3,15.79,0,25.23,5.26,33,12.92L782.87,42.38c-6.46-5.86-13-9.44-21.41-9.44-14.11,0-24.28,11.72-24.28,26.07v.24c0,14.35,9.93,26.31,24.28,26.31,9.57,0,15.43-3.83,22-9.81l11.72,11.84c-8.62,9.21-18.18,15-34.33,15C736.22,102.54,717.93,83.53,717.93,59.49Z"/><path class="cls-1" d="M803.79,59.49v-.24c0-23.8,18.77-43.3,44.61-43.3S892.77,35.21,892.77,59v.24c0,23.8-18.78,43.29-44.61,43.29S803.79,83.29,803.79,59.49Zm69.72,0v-.24c0-14.36-10.52-26.31-25.35-26.31S823,44.66,823,59v.24c0,14.35,10.53,26.31,25.36,26.31S873.51,73.84,873.51,59.49Z"/></svg>